<?xml version="1.0" encoding="UTF-8" standalone="no"?>
<!DOCTYPE svg PUBLIC "-//W3C//DTD SVG 1.1//EN" "http://www.w3.org/Graphics/SVG/1.1/DTD/svg11.dtd">
<svg width="100%" height="100%" viewBox="0 0 899 669" version="1.1" xmlns="http://www.w3.org/2000/svg" xmlns:xlink="http://www.w3.org/1999/xlink" xml:space="preserve" style="fill-rule:evenodd;clip-rule:evenodd;stroke-linejoin:round;stroke-miterlimit:1.41421;">
    <g id="Artboard1" transform="matrix(0.307779,0,0,0.308684,-35.3185,-36.6694)">
        <rect x="114.753" y="118.793" width="2920.74" height="2165.06" style="fill:none;"/>
        <g transform="matrix(0.991546,0,0,0.988639,-227.619,-214.801)">
            <text x="393.811px" y="401.464px" style="font-family:'Poppins-Regular', 'Poppins';font-size:50px;fill:white;">Manufacturer</text>
        </g>
        <g transform="matrix(0.991546,0,0,0.988639,-227.619,493.81)">
            <text x="452.861px" y="401.464px" style="font-family:'Poppins-Regular', 'Poppins';font-size:50px;fill:white;">Designer</text>
        </g>
        <g transform="matrix(0.991546,0,0,0.988639,539.938,1035.66)">
            <text x="321.361px" y="401.464px" style="font-family:'Poppins-Regular', 'Poppins';font-size:50px;fill:white;">Shared Parameters</text>
        </g>
        <g transform="matrix(0.991546,0,0,0.988639,1431.34,1117.1)">
            <text x="330.936px" y="401.464px" style="font-family:'Poppins-Regular', 'Poppins';font-size:50px;fill:white;">Collaborated Data</text>
            <text x="188.236px" y="459.797px" style="font-family:'Poppins-Regular', 'Poppins';font-size:50px;fill:white;">(Building Information Models)</text>
        </g>
        <g transform="matrix(0.991546,0,0,0.988639,-228.611,1261)">
            <text x="427.011px" y="401.464px" style="font-family:'Poppins-Regular', 'Poppins';font-size:50px;fill:white;">Contractor</text>
        </g>
        <g transform="matrix(0.73625,0,0,0.734092,-609.45,759.341)">
            <g transform="matrix(4.16667,0,0,4.16667,-3308.33,-2975.73)">
                <path d="M1136.64,1140.7C1107.56,1140.7 1114.04,1126.44 1112.07,1112.16L1087.97,1112.16C1086,1126.44 1092.49,1140.7 1063.41,1140.7C1044.83,1140.7 1038.48,1148.84 1038.48,1166.75L1038.48,1178.82C1055.45,1192.09 1076.81,1200 1100.02,1200C1123.23,1200 1144.59,1192.09 1161.56,1178.82L1161.56,1166.75C1161.56,1148.84 1155.22,1140.7 1136.64,1140.7Z" style="fill:rgb(253,208,175);fill-rule:nonzero;"/>
            </g>
            <g transform="matrix(4.16667,0,0,4.16667,-3308.33,-2975.73)">
                <path d="M1112.59,1120.45C1112.57,1119.75 1112.55,1119.04 1112.53,1118.33L1112.53,1118.32C1112.56,1119.03 1112.58,1119.74 1112.6,1120.44C1112.6,1120.44 1112.59,1120.44 1112.59,1120.45Z" style="fill:rgb(13,119,61);fill-rule:nonzero;"/>
            </g>
            <g transform="matrix(4.16667,0,0,4.16667,-3308.33,-2975.73)">
                <path d="M1100.08,1123.98C1095.14,1123.98 1090.99,1122.64 1087.51,1120.41C1087.53,1119.71 1087.55,1119 1087.57,1118.29C1091.05,1120.5 1095.17,1121.82 1100.08,1121.82C1104.96,1121.82 1109.07,1120.51 1112.53,1118.33C1112.55,1119.04 1112.57,1119.75 1112.59,1120.45C1109.12,1122.66 1104.99,1123.98 1100.08,1123.98Z" style="fill:rgb(228,187,156);fill-rule:nonzero;"/>
            </g>
            <g transform="matrix(4.16667,0,0,4.16667,-3308.33,-2975.73)">
                <path d="M1076.22,1087.28C1076.22,1090.79 1073.81,1093.64 1070.83,1093.64C1067.85,1093.64 1065.44,1090.79 1065.44,1087.28C1065.44,1083.77 1067.85,1080.93 1070.83,1080.93C1073.81,1080.93 1076.22,1083.77 1076.22,1087.28Z" style="fill:rgb(253,208,175);fill-rule:nonzero;"/>
            </g>
            <g transform="matrix(4.16667,0,0,4.16667,-3308.33,-2975.73)">
                <path d="M1134.72,1087.28C1134.72,1090.79 1132.31,1093.64 1129.33,1093.64C1126.35,1093.64 1123.94,1090.79 1123.94,1087.28C1123.94,1083.77 1126.35,1080.93 1129.33,1080.93C1132.31,1080.93 1134.72,1083.77 1134.72,1087.28Z" style="fill:rgb(253,208,175);fill-rule:nonzero;"/>
            </g>
            <g transform="matrix(4.16667,0,0,4.16667,-3308.33,-2975.73)">
                <path d="M1105.44,1041.67L1094.72,1041.67C1080.62,1041.67 1069.19,1058.2 1069.19,1072.3C1069.19,1072.3 1069.3,1078.61 1070.8,1086.72C1073.51,1101.34 1080.75,1121.82 1100.08,1121.82C1130.14,1121.82 1130.97,1072.3 1130.97,1072.3C1130.97,1058.2 1119.54,1041.67 1105.44,1041.67Z" style="fill:rgb(253,208,175);fill-rule:nonzero;"/>
            </g>
            <g transform="matrix(4.16667,0,0,4.16667,-3308.33,-2975.73)">
                <path d="M1068.35,1081.82C1063.8,1074.99 1059.62,1038.18 1084.19,1033.94C1106.5,1018.36 1147.61,1040.41 1132.19,1081.82L1129.28,1083.65C1131.89,1072.4 1125.03,1066.37 1120.14,1066.37C1096.34,1066.37 1090.81,1042.48 1084.19,1051.28C1078.18,1059.28 1073.1,1059.67 1071.22,1071.06C1070.16,1077.42 1071.26,1083.65 1071.26,1083.65L1068.35,1081.82Z" style="fill:rgb(117,77,42);fill-rule:nonzero;"/>
            </g>
            <g transform="matrix(4.16667,0,0,4.16667,-3308.33,-2975.73)">
                <path d="M1129.83,1079.77C1129.47,1072.11 1124.15,1068.06 1120.14,1068.06C1111.15,1068.06 1104.77,1064.65 1099.95,1060.88C1099.99,1060.88 1100.03,1060.88 1100.08,1060.88C1100.81,1060.88 1101.54,1060.88 1102.25,1060.87C1106.76,1063.92 1112.51,1066.37 1120.14,1066.37L1120.32,1066.37C1120.32,1066.37 1120.33,1066.38 1120.34,1066.38L1120.54,1066.38C1120.54,1066.39 1120.55,1066.39 1120.55,1066.39L1120.67,1066.39C1120.68,1066.4 1120.68,1066.4 1120.69,1066.4L1120.74,1066.4C1120.76,1066.4 1120.78,1066.4 1120.8,1066.41L1120.86,1066.41C1120.87,1066.41 1120.88,1066.42 1120.88,1066.42L1120.94,1066.42C1120.97,1066.43 1121.01,1066.43 1121.04,1066.44L1121.1,1066.44C1121.1,1066.45 1121.11,1066.45 1121.12,1066.45C1125.26,1067.08 1130.21,1071.67 1129.83,1079.77ZM1070.77,1077.86C1070.73,1075.83 1070.82,1073.45 1071.22,1071.06C1072.23,1064.96 1074.15,1062.01 1076.65,1059.36C1077.13,1059.43 1077.63,1059.49 1078.13,1059.55C1074.92,1062.7 1072.42,1065.49 1071.22,1072.75C1070.93,1074.51 1070.8,1076.25 1070.77,1077.86Z" style="fill:rgb(228,187,156);fill-rule:nonzero;"/>
            </g>
            <g transform="matrix(4.16667,0,0,4.16667,-3308.33,-2975.73)">
                <path d="M1121.1,1066.44L1121.09,1066.44L1121.1,1066.44ZM1120.92,1066.42L1120.91,1066.42L1120.92,1066.42ZM1120.89,1066.42L1120.88,1066.42L1120.89,1066.42ZM1120.86,1066.41L1120.85,1066.41L1120.86,1066.41ZM1120.84,1066.41L1120.83,1066.41L1120.84,1066.41ZM1120.81,1066.41L1120.8,1066.41L1120.81,1066.41ZM1120.74,1066.4L1120.73,1066.4L1120.74,1066.4ZM1120.71,1066.4L1120.7,1066.4L1120.71,1066.4ZM1120.69,1066.4C1120.68,1066.4 1120.68,1066.4 1120.67,1066.39C1120.68,1066.4 1120.68,1066.4 1120.69,1066.4ZM1120.66,1066.39C1120.65,1066.39 1120.65,1066.39 1120.64,1066.39C1120.65,1066.39 1120.65,1066.39 1120.66,1066.39ZM1120.63,1066.39C1120.63,1066.39 1120.62,1066.39 1120.61,1066.39C1120.62,1066.39 1120.63,1066.39 1120.63,1066.39ZM1120.6,1066.39L1120.59,1066.39L1120.6,1066.39ZM1120.58,1066.39C1120.57,1066.39 1120.56,1066.39 1120.55,1066.39C1120.56,1066.39 1120.57,1066.39 1120.58,1066.39ZM1120.54,1066.38C1120.53,1066.38 1120.53,1066.38 1120.52,1066.38C1120.53,1066.38 1120.53,1066.38 1120.54,1066.38ZM1120.51,1066.38C1120.5,1066.38 1120.5,1066.38 1120.49,1066.38C1120.5,1066.38 1120.5,1066.38 1120.51,1066.38ZM1120.48,1066.38L1120.47,1066.38L1120.48,1066.38ZM1120.45,1066.38L1120.44,1066.38L1120.45,1066.38ZM1120.43,1066.38C1120.42,1066.38 1120.41,1066.38 1120.41,1066.38C1120.42,1066.38 1120.42,1066.38 1120.43,1066.38ZM1120.4,1066.38C1120.39,1066.38 1120.39,1066.38 1120.38,1066.38C1120.39,1066.38 1120.39,1066.38 1120.4,1066.38ZM1120.37,1066.38C1120.36,1066.38 1120.35,1066.38 1120.34,1066.38C1120.35,1066.38 1120.36,1066.38 1120.37,1066.38ZM1120.34,1066.38C1120.33,1066.38 1120.32,1066.37 1120.32,1066.37C1120.32,1066.37 1120.33,1066.38 1120.34,1066.38ZM1120.31,1066.37C1120.3,1066.37 1120.3,1066.37 1120.29,1066.37C1120.3,1066.37 1120.3,1066.37 1120.31,1066.37ZM1120.28,1066.37C1120.27,1066.37 1120.27,1066.37 1120.26,1066.37C1120.27,1066.37 1120.27,1066.37 1120.28,1066.37ZM1120.25,1066.37L1120.24,1066.37L1120.25,1066.37ZM1120.22,1066.37L1120.21,1066.37L1120.22,1066.37ZM1120.2,1066.37C1120.19,1066.37 1120.18,1066.37 1120.18,1066.37C1120.18,1066.37 1120.19,1066.37 1120.2,1066.37ZM1120.17,1066.37C1120.16,1066.37 1120.15,1066.37 1120.14,1066.37C1120.15,1066.37 1120.16,1066.37 1120.17,1066.37Z" style="fill:rgb(105,68,37);fill-rule:nonzero;"/>
            </g>
            <g transform="matrix(4.16667,0,0,4.16667,-3308.33,-2975.73)">
                <path d="M1136.59,1140.7C1132.8,1140.7 1129.61,1140.45 1126.93,1140L1099.98,1142.94L1073.02,1140C1070.34,1140.45 1067.16,1140.7 1063.36,1140.7C1044.78,1140.7 1038.44,1148.84 1038.44,1166.75L1038.44,1178.82C1055.41,1192.09 1076.77,1200 1099.98,1200C1123.19,1200 1144.55,1192.09 1161.52,1178.82L1161.52,1166.75C1161.52,1148.84 1155.17,1140.7 1136.59,1140.7Z" style="fill:rgb(228,229,230);fill-rule:nonzero;"/>
            </g>
            <g transform="matrix(4.16667,0,0,4.16667,-3308.33,-2975.73)">
                <path d="M1136.59,1140.7C1132.8,1140.7 1129.61,1140.45 1126.93,1140L1099.98,1142.94L1073.02,1140C1070.34,1140.45 1067.16,1140.7 1063.36,1140.7C1044.78,1140.7 1038.44,1148.84 1038.44,1166.75L1038.44,1178.82C1055.41,1192.09 1076.77,1200 1099.98,1200C1123.19,1200 1144.55,1192.09 1161.52,1178.82L1161.52,1166.75C1161.52,1148.84 1155.17,1140.7 1136.59,1140.7Z" style="fill:rgb(251,244,198);fill-rule:nonzero;"/>
            </g>
            <g transform="matrix(4.16667,0,0,4.16667,-3308.33,-2975.73)">
                <path d="M1128.26,1140.2C1127.83,1140.14 1127.41,1140.07 1127,1140.01L1127.01,1140C1127.41,1140.07 1127.83,1140.13 1128.26,1140.19L1128.27,1140.19L1128.26,1140.2Z" style="fill:rgb(13,119,61);fill-rule:nonzero;"/>
            </g>
            <g transform="matrix(4.16667,0,0,4.16667,-3308.33,-2975.73)">
                <path d="M1128.26,1140.2C1127.83,1140.14 1127.41,1140.08 1127,1140.01C1127.41,1140.07 1127.83,1140.14 1128.26,1140.2Z" style="fill:rgb(228,187,156);fill-rule:nonzero;"/>
            </g>
            <g transform="matrix(4.16667,0,0,4.16667,-3308.33,-2975.73)">
                <path d="M1073.1,1140.01L1073.07,1140C1073.08,1140 1073.09,1140 1073.1,1140L1073.1,1140.01Z" style="fill:rgb(228,187,156);fill-rule:nonzero;"/>
            </g>
            <g transform="matrix(4.16667,0,0,4.16667,-3308.33,-2975.73)">
                <path d="M1114.53,1157.66L1127.01,1140L1127,1140.01L1114.53,1157.66Z" style="fill:rgb(173,162,138);fill-rule:nonzero;"/>
            </g>
            <g transform="matrix(4.16667,0,0,4.16667,-3308.33,-2975.73)">
                <path d="M1100.08,1021.4C1072.17,1021.4 1063.34,1043.43 1063.34,1056.86C1063.34,1056.86 1077.63,1060.88 1100.08,1060.88C1122.53,1060.88 1136.82,1056.86 1136.82,1056.86C1136.82,1043.43 1127.99,1021.4 1100.08,1021.4Z" style="fill:rgb(241,185,32);fill-rule:nonzero;"/>
            </g>
            <g transform="matrix(4.16667,0,0,4.16667,-3308.33,-2975.73)">
                <path d="M1115.36,1055.7C1115.07,1042.92 1114.05,1026.47 1105.53,1021.7C1106.04,1021.76 1106.53,1021.82 1107.03,1021.9C1115.46,1027.35 1116.71,1043.22 1117.06,1055.55C1116.5,1055.6 1115.94,1055.65 1115.36,1055.7ZM1084.8,1055.7C1084.22,1055.65 1083.66,1055.6 1083.1,1055.55C1083.45,1043.22 1084.7,1027.35 1093.13,1021.9C1093.62,1021.82 1094.12,1021.76 1094.63,1021.7C1086.1,1026.47 1085.09,1042.92 1084.8,1055.7Z" style="fill:rgb(217,167,40);fill-rule:nonzero;"/>
            </g>
            <g transform="matrix(4.16667,0,0,4.16667,-3308.33,-2975.73)">
                <path d="M1100.08,1020.35C1085.52,1020.35 1085.01,1043.6 1084.73,1058.87L1115.43,1058.87C1115.15,1043.6 1114.64,1020.35 1100.08,1020.35Z" style="fill:rgb(241,185,32);fill-rule:nonzero;"/>
            </g>
            <g transform="matrix(4.16667,0,0,4.16667,-3308.33,-2975.73)">
                <path d="M1136.82,1056.74C1136.82,1056.61 1136.82,1056.48 1136.82,1056.35C1136.82,1056.48 1136.82,1056.61 1136.82,1056.74Z" style="fill:rgb(13,119,61);fill-rule:nonzero;"/>
            </g>
            <g transform="matrix(4.16667,0,0,4.16667,-3308.33,-2975.73)">
                <path d="M1100.08,1060.62C1080.52,1060.62 1067,1057.64 1063.34,1056.74C1063.34,1055.4 1063.44,1053.98 1063.63,1052.51C1066.31,1053.16 1073.16,1054.64 1083.1,1055.55C1083.07,1056.69 1083.05,1057.8 1083.03,1058.87L1117.13,1058.87C1117.11,1057.8 1117.09,1056.69 1117.06,1055.55C1127,1054.64 1133.85,1053.16 1136.53,1052.51C1136.71,1053.84 1136.8,1055.13 1136.82,1056.35C1136.82,1056.48 1136.82,1056.61 1136.82,1056.74C1133.16,1057.64 1119.63,1060.62 1100.08,1060.62Z" style="fill:rgb(217,167,40);fill-rule:nonzero;"/>
            </g>
            <g transform="matrix(4.16667,0,0,4.16667,-3308.33,-2975.73)">
                <path d="M1117.13,1058.87L1115.43,1058.87C1115.41,1057.84 1115.39,1056.79 1115.36,1055.7C1115.94,1055.65 1116.5,1055.6 1117.06,1055.55C1117.09,1056.69 1117.11,1057.8 1117.13,1058.87ZM1084.73,1058.87L1083.03,1058.87C1083.05,1057.8 1083.07,1056.69 1083.1,1055.55C1083.66,1055.6 1084.22,1055.65 1084.8,1055.7C1084.77,1056.79 1084.75,1057.84 1084.73,1058.87Z" style="fill:rgb(195,150,45);fill-rule:nonzero;"/>
            </g>
            <g transform="matrix(4.16667,0,0,4.16667,-3308.33,-2975.73)">
                <path d="M1115.43,1058.87L1084.73,1058.87C1084.75,1057.84 1084.77,1056.79 1084.8,1055.7C1089.33,1056.07 1094.46,1056.32 1100.08,1056.32C1105.7,1056.32 1110.83,1056.07 1115.36,1055.7C1115.39,1056.79 1115.41,1057.84 1115.43,1058.87Z" style="fill:rgb(217,167,40);fill-rule:nonzero;"/>
            </g>
            <g transform="matrix(4.16667,0,0,4.16667,-3308.33,-2975.73)">
                <path d="M1100.08,1057.52C1078.79,1057.52 1064.65,1054 1062.61,1053.46C1062.43,1054.93 1060.45,1054.89 1060.45,1056.23C1060.45,1056.23 1076.89,1071.94 1099.95,1071.94C1123,1071.94 1140.59,1056.1 1140.59,1056.1C1140.59,1054.76 1137.73,1054.93 1137.55,1053.46C1135.51,1054 1121.37,1057.52 1100.08,1057.52Z" style="fill:rgb(241,185,32);fill-rule:nonzero;"/>
            </g>
        </g>
        <g transform="matrix(0.73625,0,0,0.734092,-260.003,518.423)">
            <g transform="matrix(4.16667,0,0,4.16667,-449.631,-1249.18)">
                <path d="M306.648,430.483L293.262,430.483C275.66,430.483 261.392,453.904 261.392,470.544C261.392,470.544 246.027,528.245 251.036,542.917L348.875,542.917C353.883,528.245 338.52,470.544 338.52,470.544C338.52,453.904 324.25,430.483 306.648,430.483Z" style="fill:rgb(65,64,67);fill-rule:nonzero;"/>
            </g>
            <g transform="matrix(4.16667,0,0,4.16667,-449.631,-1249.18)">
                <path d="M336.613,540.702C307.535,540.702 314.023,526.441 312.049,512.163L287.951,512.163C285.978,526.441 292.465,540.702 263.387,540.702C244.803,540.702 238.462,548.845 238.462,566.76L238.462,578.83C255.431,592.096 276.792,600.005 300,600.005C323.209,600.005 344.569,592.097 361.538,578.83L361.538,566.76C361.538,548.845 355.197,540.702 336.613,540.702Z" style="fill:rgb(253,208,175);fill-rule:nonzero;"/>
            </g>
            <g transform="matrix(4.16667,0,0,4.16667,-449.631,-1249.18)">
                <path d="M287.434,520.443C287.417,520.432 287.4,520.421 287.383,520.41C287.402,519.693 287.422,518.97 287.451,518.241C287.465,518.25 287.48,518.26 287.494,518.269C287.47,519 287.453,519.725 287.434,520.443Z" style="fill:rgb(58,57,59);fill-rule:nonzero;"/>
            </g>
            <g transform="matrix(4.16667,0,0,4.16667,-449.631,-1249.18)">
                <path d="M299.956,523.989C295.04,523.989 290.911,522.658 287.434,520.443C287.453,519.725 287.47,519 287.494,518.269C290.957,520.46 295.07,521.767 299.956,521.767C304.836,521.767 308.947,520.461 312.407,518.275C312.436,519.003 312.456,519.727 312.475,520.444C308.999,522.659 304.87,523.989 299.956,523.989Z" style="fill:rgb(228,187,156);fill-rule:nonzero;"/>
            </g>
            <g transform="matrix(4.16667,0,0,4.16667,-449.631,-1249.18)">
                <path d="M336.613,540.702L315.16,543.885L299.928,542.94L284.751,543.885L263.387,540.702C244.803,540.702 238.462,548.845 238.462,566.76L238.462,578.83C255.431,592.096 276.792,600.005 300,600.005C323.209,600.005 344.569,592.097 361.538,578.83L361.538,566.76C361.538,548.845 355.197,540.702 336.613,540.702Z" style="fill:rgb(250,184,160);fill-rule:nonzero;"/>
            </g>
            <g transform="matrix(4.16667,0,0,4.16667,-449.631,-1249.18)">
                <path d="M312.279,543.119L287.579,543.119L296.132,554.361L293.843,599.828C295.792,599.941 297.754,600.005 299.732,600.005C301.842,600.005 303.935,599.932 306.013,599.803L303.725,554.361L312.279,543.119Z" style="fill:rgb(153,131,121);fill-rule:nonzero;"/>
            </g>
            <g transform="matrix(4.16667,0,0,4.16667,-449.631,-1249.18)">
                <path d="M299.928,555.052C298.059,555.052 296.132,554.361 296.132,554.361L303.725,554.361C303.725,554.361 301.798,555.052 299.928,555.052Z" style="fill:rgb(123,106,98);fill-rule:nonzero;"/>
            </g>
            <g transform="matrix(4.16667,0,0,4.16667,-449.631,-1249.18)">
                <path d="M336.613,540.702L315.16,543.885L299.956,593.626L284.751,543.885L263.387,540.702C244.803,540.702 238.462,548.845 238.462,566.76L238.462,578.83C255.431,592.096 276.792,600.005 300,600.005C323.209,600.005 344.569,592.097 361.538,578.83L361.538,566.76C361.538,548.845 355.197,540.702 336.613,540.702Z" style="fill:rgb(229,146,133);fill-rule:nonzero;"/>
            </g>
            <g transform="matrix(4.16667,0,0,4.16667,-449.631,-1249.18)">
                <path d="M286.444,529.763L284.592,529.763L272.879,539.871L285.45,557.667L299.928,542.94L286.444,529.763Z" style="fill:rgb(250,184,160);fill-rule:nonzero;"/>
            </g>
            <g transform="matrix(4.16667,0,0,4.16667,-449.631,-1249.18)">
                <path d="M313.453,529.763L315.265,529.763L326.978,539.871L314.407,557.667L299.928,542.94L313.453,529.763Z" style="fill:rgb(250,184,160);fill-rule:nonzero;"/>
            </g>
            <g transform="matrix(4.16667,0,0,4.16667,-449.631,-1249.18)">
                <path d="M276.095,487.287C276.095,490.796 273.682,493.642 270.705,493.642C267.728,493.642 265.314,490.796 265.314,487.287C265.314,483.776 267.728,480.932 270.705,480.932C273.682,480.932 276.095,483.776 276.095,487.287Z" style="fill:rgb(253,208,175);fill-rule:nonzero;"/>
            </g>
            <g transform="matrix(4.16667,0,0,4.16667,-449.631,-1249.18)">
                <path d="M334.596,487.287C334.596,490.796 332.183,493.642 329.206,493.642C326.229,493.642 323.816,490.796 323.816,487.287C323.816,483.776 326.229,480.932 329.206,480.932C332.183,480.932 334.596,483.776 334.596,487.287Z" style="fill:rgb(253,208,175);fill-rule:nonzero;"/>
            </g>
            <g transform="matrix(4.16667,0,0,4.16667,-449.631,-1249.18)">
                <path d="M311.394,556.08L306.392,550.857L306.968,550.1L311.737,554.951L311.394,556.08ZM288.504,556.037L288.161,554.91L292.89,550.1L293.465,550.856L288.504,556.037ZM300.104,543.119L299.753,543.119L299.928,542.94L300.104,543.119Z" style="fill:rgb(226,166,143);fill-rule:nonzero;"/>
            </g>
            <g transform="matrix(4.16667,0,0,4.16667,-449.631,-1249.18)">
                <path d="M306.392,550.857L299.928,544.106L293.465,550.856L292.89,550.1L299.753,543.119L300.104,543.119L306.968,550.1L306.392,550.857Z" style="fill:rgb(137,118,109);fill-rule:nonzero;"/>
            </g>
            <g transform="matrix(4.16667,0,0,4.16667,-449.631,-1249.18)">
                <path d="M281.352,532.56L263.315,540.702L278.633,554.361L271.081,559.227L299.956,593.626L281.352,532.56Z" style="fill:rgb(229,146,133);fill-rule:nonzero;"/>
            </g>
            <g transform="matrix(4.16667,0,0,4.16667,-449.631,-1249.18)">
                <path d="M318.559,532.56L336.596,540.702L321.278,554.361L328.83,559.227L299.956,593.626L318.559,532.56Z" style="fill:rgb(229,146,133);fill-rule:nonzero;"/>
            </g>
            <g transform="matrix(4.16667,0,0,4.16667,-449.631,-1249.18)">
                <path d="M336.662,540.702C336.649,540.702 336.637,540.702 336.625,540.702C336.637,540.702 336.649,540.702 336.662,540.702Z" style="fill:rgb(58,57,59);fill-rule:nonzero;"/>
            </g>
            <g transform="matrix(4.16667,0,0,4.16667,-449.631,-1249.18)">
                <path d="M336.606,540.703L336.607,540.702C336.609,540.702 336.611,540.702 336.613,540.702L336.606,540.703Z" style="fill:rgb(228,187,156);fill-rule:nonzero;"/>
            </g>
            <g transform="matrix(4.16667,0,0,4.16667,-449.631,-1249.18)">
                <path d="M322.276,555.004L321.278,554.361L332.613,544.253L336.606,540.703L336.613,540.702L336.662,540.702C337.13,540.702 337.588,540.711 338.042,540.722L322.276,555.004Z" style="fill:rgb(207,131,120);fill-rule:nonzero;"/>
            </g>
            <g transform="matrix(4.16667,0,0,4.16667,-449.631,-1249.18)">
                <path d="M322.262,555.017L321.245,554.361L332.613,544.253L321.278,554.361L322.276,555.004L322.262,555.017Z" style="fill:rgb(207,131,120);fill-rule:nonzero;"/>
            </g>
            <g transform="matrix(4.16667,0,0,4.16667,-449.631,-1249.18)">
                <path d="M261.739,540.724L261.738,540.722C262.209,540.711 262.684,540.702 263.172,540.702C262.686,540.704 262.21,540.711 261.739,540.724Z" style="fill:rgb(58,57,59);fill-rule:nonzero;"/>
            </g>
            <g transform="matrix(4.16667,0,0,4.16667,-449.631,-1249.18)">
                <path d="M277.518,555.017L261.739,540.724C262.21,540.711 262.686,540.704 263.173,540.702L278.535,554.361L277.518,555.017Z" style="fill:rgb(207,131,120);fill-rule:nonzero;"/>
            </g>
            <g transform="matrix(4.16667,0,0,4.16667,-449.631,-1249.18)">
                <path d="M299.956,595.289L271.081,560.79L271.932,560.242L299.956,593.626L327.979,560.242L328.83,560.79L299.956,595.289Z" style="fill:rgb(207,131,120);fill-rule:nonzero;"/>
            </g>
            <g transform="matrix(4.16667,0,0,4.16667,-449.631,-1249.18)">
                <path d="M299.956,593.626L327.979,560.242L299.956,593.626Z" style="fill:rgb(207,131,120);fill-rule:nonzero;"/>
            </g>
            <g transform="matrix(4.16667,0,0,4.16667,-449.631,-1249.18)">
                <path d="M305.316,441.616L294.595,441.616C280.498,441.616 269.07,458.15 269.07,472.247C269.07,472.247 269.894,521.767 299.956,521.767C330.016,521.767 330.841,472.247 330.841,472.247C330.841,458.15 319.414,441.616 305.316,441.616Z" style="fill:rgb(253,208,175);fill-rule:nonzero;"/>
            </g>
            <g transform="matrix(4.16667,0,0,4.16667,-449.631,-1249.18)">
                <path d="M299.956,438.231C272.761,438.231 264.437,463.507 269.795,481.022C269.795,481.022 273.926,477.636 282.275,475.329C282.275,475.329 281.749,468.503 283.496,459.381C283.252,468.048 285.07,474.632 285.07,474.632C289.198,473.71 294.16,473.062 299.956,473.062C320.09,473.062 330.115,481.023 330.115,481.023C335.474,463.508 327.15,438.231 299.956,438.231Z" style="fill:rgb(65,64,67);fill-rule:nonzero;"/>
            </g>
            <g transform="matrix(4.16667,0,0,4.16667,-449.631,-1249.18)">
                <path d="M330.11,481.057C330.11,481.057 330.111,481.048 330.115,481.022L330.115,481.023C330.113,481.04 330.11,481.057 330.11,481.057ZM330.114,481.022C326.151,478.688 316.423,474.528 300.979,474.528C294.993,474.528 289.868,475.196 285.605,476.149C285.605,476.149 285.452,475.595 285.239,474.597C289.238,473.715 294.007,473.092 299.554,473.063L299.824,473.063C299.868,473.062 299.912,473.062 299.956,473.062C300,473.062 300.046,473.063 300.09,473.063C300.32,473.063 300.548,473.064 300.776,473.067C300.794,473.067 300.813,473.067 300.831,473.068C300.851,473.068 300.871,473.068 300.892,473.068C300.956,473.069 301.019,473.07 301.082,473.071C301.096,473.071 301.11,473.071 301.124,473.071C301.134,473.072 301.146,473.072 301.157,473.072C301.185,473.072 301.212,473.073 301.239,473.073C301.241,473.073 301.242,473.073 301.243,473.073C301.319,473.075 301.394,473.076 301.469,473.078C301.504,473.078 301.539,473.079 301.573,473.08C301.577,473.08 301.58,473.08 301.584,473.08C301.65,473.081 301.716,473.083 301.781,473.085C301.792,473.085 301.802,473.085 301.813,473.085C301.829,473.086 301.845,473.086 301.861,473.086C301.883,473.087 301.905,473.088 301.928,473.088C301.935,473.088 301.942,473.089 301.949,473.089C301.98,473.09 302.011,473.09 302.042,473.091C302.043,473.091 302.043,473.091 302.045,473.091C302.157,473.094 302.27,473.098 302.382,473.102C302.386,473.102 302.387,473.102 302.39,473.102C302.426,473.103 302.46,473.104 302.495,473.105C302.502,473.105 302.508,473.106 302.515,473.106C302.583,473.108 302.652,473.111 302.72,473.113C302.727,473.114 302.734,473.114 302.741,473.114C302.772,473.115 302.802,473.116 302.833,473.118C302.837,473.118 302.842,473.118 302.847,473.118C302.879,473.119 302.911,473.121 302.944,473.122C302.957,473.122 302.968,473.123 302.981,473.123C303.006,473.124 303.031,473.125 303.057,473.127L303.058,473.127C303.096,473.128 303.131,473.13 303.168,473.131C303.171,473.131 303.171,473.131 303.174,473.132C303.283,473.136 303.393,473.141 303.501,473.146C303.507,473.147 303.512,473.147 303.517,473.147C303.55,473.149 303.58,473.15 303.612,473.152L303.613,473.152C303.65,473.154 303.685,473.155 303.722,473.157C303.735,473.158 303.745,473.159 303.758,473.159C303.783,473.16 303.807,473.162 303.833,473.163C303.841,473.163 303.848,473.164 303.856,473.164C303.921,473.168 303.988,473.171 304.053,473.175C304.09,473.177 304.126,473.179 304.162,473.181C304.166,473.181 304.17,473.182 304.174,473.182C321.374,474.167 329.998,480.93 330.114,481.022Z" style="fill:rgb(228,187,156);fill-rule:nonzero;"/>
            </g>
            <g transform="matrix(4.16667,0,0,4.16667,-449.631,-1249.18)">
                <path d="M330.115,481.023L330.115,481.022C330.118,480.996 330.119,480.986 330.12,480.986C330.12,480.986 330.117,481.004 330.115,481.022L330.115,481.023ZM330.115,481.022L330.114,481.022C329.998,480.93 321.374,474.167 304.174,473.182C321.481,474.174 330.106,481.015 330.115,481.022ZM304.162,473.181C304.126,473.179 304.09,473.177 304.053,473.175C304.09,473.177 304.126,473.179 304.162,473.181ZM304.053,473.175C303.988,473.171 303.921,473.168 303.856,473.164C303.922,473.168 303.987,473.171 304.053,473.175ZM303.833,473.163C303.807,473.162 303.783,473.16 303.758,473.159C303.782,473.16 303.809,473.162 303.833,473.163ZM303.722,473.157C303.685,473.155 303.65,473.154 303.613,473.152C303.649,473.154 303.687,473.156 303.722,473.157ZM303.612,473.152C303.58,473.15 303.55,473.149 303.517,473.147C303.55,473.149 303.58,473.15 303.612,473.152ZM303.501,473.146C303.393,473.141 303.283,473.136 303.174,473.132C303.283,473.136 303.393,473.141 303.501,473.146ZM303.168,473.131C303.131,473.13 303.096,473.128 303.058,473.127C303.094,473.128 303.132,473.13 303.168,473.131ZM303.057,473.127C303.031,473.125 303.006,473.124 302.981,473.123C303.005,473.124 303.032,473.125 303.057,473.127ZM302.944,473.122C302.911,473.121 302.879,473.119 302.847,473.118C302.879,473.119 302.911,473.121 302.944,473.122ZM302.833,473.118C302.802,473.116 302.772,473.115 302.741,473.114C302.772,473.115 302.802,473.116 302.833,473.118ZM302.72,473.113C302.652,473.111 302.583,473.108 302.515,473.106C302.583,473.108 302.652,473.111 302.72,473.113ZM302.495,473.105C302.46,473.104 302.426,473.103 302.39,473.102C302.424,473.103 302.461,473.104 302.495,473.105ZM302.382,473.102C302.27,473.098 302.157,473.094 302.045,473.091C302.157,473.094 302.27,473.098 302.382,473.102ZM302.042,473.091C302.011,473.09 301.98,473.09 301.949,473.089C301.98,473.09 302.011,473.09 302.042,473.091ZM301.928,473.088C301.905,473.088 301.883,473.087 301.861,473.086C301.883,473.087 301.905,473.088 301.928,473.088ZM301.813,473.085C301.802,473.085 301.792,473.085 301.781,473.085C301.792,473.085 301.802,473.085 301.813,473.085ZM301.584,473.08C301.58,473.08 301.577,473.08 301.573,473.08C301.577,473.08 301.58,473.08 301.584,473.08ZM301.469,473.078C301.394,473.076 301.319,473.075 301.243,473.073C301.319,473.075 301.394,473.076 301.469,473.078ZM301.239,473.073C301.212,473.073 301.185,473.072 301.157,473.072C301.185,473.072 301.212,473.073 301.239,473.073ZM301.124,473.071C301.11,473.071 301.096,473.071 301.082,473.071C301.096,473.071 301.11,473.071 301.124,473.071ZM300.892,473.068C300.871,473.068 300.851,473.068 300.831,473.068C300.851,473.068 300.871,473.068 300.892,473.068ZM300.776,473.067C300.548,473.064 300.32,473.063 300.09,473.063C300.32,473.063 300.548,473.064 300.776,473.067ZM299.554,473.063C299.555,473.063 299.556,473.063 299.557,473.063C299.556,473.063 299.555,473.063 299.554,473.063ZM299.688,473.063C299.688,473.063 299.689,473.063 299.69,473.063C299.689,473.063 299.688,473.063 299.688,473.063ZM299.821,473.063C299.822,473.063 299.823,473.063 299.824,473.063C299.823,473.063 299.822,473.063 299.821,473.063Z" style="fill:rgb(58,57,59);fill-rule:nonzero;"/>
            </g>
            <g transform="matrix(4.16667,0,0,4.16667,-449.631,-1249.18)">
                <path d="M269.793,481.022C269.792,481.019 269.792,481.017 269.792,481.014C269.791,481.012 269.791,481.01 269.791,481.008C269.793,481.013 269.794,481.017 269.795,481.022C269.794,481.022 269.794,481.022 269.793,481.022Z" style="fill:rgb(58,57,59);fill-rule:nonzero;"/>
            </g>
            <g transform="matrix(4.16667,0,0,4.16667,-449.631,-1249.18)">
                <path d="M269.814,481.167C269.813,481.167 269.803,481.096 269.793,481.022L269.796,481.022C269.799,481.049 269.803,481.076 269.806,481.104C269.812,481.149 269.814,481.167 269.814,481.167Z" style="fill:rgb(228,187,156);fill-rule:nonzero;"/>
            </g>
            <g transform="matrix(4.16667,0,0,4.16667,-449.631,-1249.18)">
                <path d="M269.806,481.104C269.803,481.076 269.799,481.049 269.796,481.022C269.8,481.056 269.804,481.082 269.806,481.104Z" style="fill:rgb(228,187,156);fill-rule:nonzero;"/>
            </g>
            <g transform="matrix(4.16667,0,0,4.16667,-449.631,-1249.18)">
                <path d="M269.795,481.022C269.794,481.017 269.793,481.013 269.791,481.008C269.781,480.934 269.771,480.862 269.772,480.862C269.773,480.862 269.779,480.904 269.796,481.021L269.796,481.022L269.795,481.022Z" style="fill:rgb(58,57,59);fill-rule:nonzero;"/>
            </g>
            <g transform="matrix(4.16667,0,0,4.16667,-449.631,-1249.18)">
                <path d="M269.803,481.016C269.999,480.858 274.129,477.58 282.275,475.329C282.275,475.329 282.2,474.359 282.2,472.662C282.201,469.857 282.407,465.065 283.496,459.381C283.46,460.675 283.469,461.922 283.512,463.108C282.276,471.14 282.717,476.869 282.717,476.869C275.267,478.419 270.713,480.337 269.803,481.016Z" style="fill:rgb(228,187,156);fill-rule:nonzero;"/>
            </g>
            <g transform="matrix(4.16667,0,0,4.16667,-449.631,-1249.18)">
                <path d="M269.796,481.021C269.806,481.014 273.936,477.633 282.275,475.329C274.129,477.58 269.999,480.858 269.803,481.016C269.8,481.018 269.798,481.02 269.796,481.021ZM282.275,475.329C282.275,475.329 282.2,474.359 282.2,472.662C282.2,474.359 282.275,475.329 282.275,475.329ZM283.512,463.108C283.469,461.922 283.46,460.675 283.496,459.381C283.46,460.674 283.47,461.919 283.512,463.105C283.512,463.106 283.512,463.107 283.512,463.108Z" style="fill:rgb(58,57,59);fill-rule:nonzero;"/>
            </g>
            <g transform="matrix(4.16667,0,0,4.16667,-449.631,-1249.18)">
                <rect x="320.746" y="581.43" width="18.664" height="0.886" style="fill:rgb(207,131,120);fill-rule:nonzero;"/>
            </g>
            <g transform="matrix(4.16667,0,0,4.16667,-449.631,-1249.18)">
                <rect x="260.59" y="581.43" width="18.664" height="0.886" style="fill:rgb(207,131,120);fill-rule:nonzero;"/>
            </g>
        </g>
        <g transform="matrix(0.73625,0,0,0.734092,-129.189,-264.684)">
            <g transform="matrix(4.16667,0,0,4.16667,-627.307,-1974.35)">
                <path d="M336.613,740.7C307.535,740.7 314.023,726.439 312.049,712.161L287.951,712.161C285.978,726.439 292.465,740.7 263.387,740.7C244.803,740.7 238.462,748.843 238.462,766.759L238.462,778.829C255.431,792.095 276.792,800.003 300,800.003C323.209,800.003 344.569,792.095 361.538,778.829L361.538,766.759C361.538,748.843 355.197,740.7 336.613,740.7Z" style="fill:rgb(158,108,59);fill-rule:nonzero;"/>
            </g>
            <g transform="matrix(4.16667,0,0,4.16667,-627.307,-1974.35)">
                <path d="M300.027,723.986C295.087,723.986 290.941,722.644 287.455,720.409C287.473,719.71 287.493,719.004 287.521,718.294C290.993,720.502 295.121,721.821 300.027,721.821C304.909,721.821 309.019,720.516 312.481,718.327C312.508,719.038 312.528,719.743 312.546,720.442C309.07,722.656 304.941,723.986 300.027,723.986Z" style="fill:rgb(135,83,33);fill-rule:nonzero;"/>
            </g>
            <g transform="matrix(4.16667,0,0,4.16667,-627.307,-1974.35)">
                <path d="M336.613,740.7C332.82,740.7 329.636,740.455 326.956,740.001L300,742.939L273.045,740.001C270.364,740.455 267.18,740.7 263.387,740.7C244.803,740.7 238.462,748.843 238.462,766.759L238.462,778.829C255.431,792.095 276.792,800.003 300,800.003C323.209,800.003 344.569,792.095 361.538,778.829L361.538,766.759C361.538,748.843 355.197,740.7 336.613,740.7Z" style="fill:rgb(240,242,243);fill-rule:nonzero;"/>
            </g>
            <g transform="matrix(4.16667,0,0,4.16667,-627.307,-1974.35)">
                <path d="M312.35,743.117L287.65,743.117L296.203,754.359L293.915,799.826C295.863,799.939 297.826,800.003 299.803,800.003C301.914,800.003 304.006,799.931 306.084,799.802L303.797,754.359L312.35,743.117Z" style="fill:rgb(190,32,46);fill-rule:nonzero;"/>
            </g>
            <g transform="matrix(4.16667,0,0,4.16667,-627.307,-1974.35)">
                <path d="M336.613,740.7C332.82,740.7 329.636,740.455 326.956,740.001L300.027,793.623L273.045,740.001C270.364,740.455 267.18,740.7 263.387,740.7C244.803,740.7 238.462,748.843 238.462,766.759L238.462,778.829C255.431,792.095 276.792,800.003 300,800.003C323.209,800.003 344.569,792.095 361.538,778.829L361.538,766.759C361.538,748.843 355.197,740.7 336.613,740.7Z" style="fill:rgb(48,75,90);fill-rule:nonzero;"/>
            </g>
            <g transform="matrix(4.16667,0,0,4.16667,-627.307,-1974.35)">
                <path d="M300,755.05C298.131,755.05 296.203,754.359 296.203,754.359L303.797,754.359C303.797,754.359 301.869,755.05 300,755.05Z" style="fill:rgb(153,27,37);fill-rule:nonzero;"/>
            </g>
            <g transform="matrix(4.16667,0,0,4.16667,-627.307,-1974.35)">
                <path d="M286.516,729.761L284.664,729.761L272.951,739.869L285.521,757.666L300,742.939L286.516,729.761Z" style="fill:rgb(240,242,243);fill-rule:nonzero;"/>
            </g>
            <g transform="matrix(4.16667,0,0,4.16667,-627.307,-1974.35)">
                <path d="M313.524,729.761L315.337,729.761L327.049,739.869L314.479,757.666L300,742.939L313.524,729.761Z" style="fill:rgb(240,242,243);fill-rule:nonzero;"/>
            </g>
            <g transform="matrix(4.16667,0,0,4.16667,-627.307,-1974.35)">
                <path d="M276.166,687.284C276.166,690.795 273.754,693.64 270.776,693.64C267.799,693.64 265.386,690.795 265.386,687.284C265.386,683.774 267.799,680.931 270.776,680.931C273.754,680.931 276.166,683.774 276.166,687.284Z" style="fill:rgb(158,108,59);fill-rule:nonzero;"/>
            </g>
            <g transform="matrix(4.16667,0,0,4.16667,-627.307,-1974.35)">
                <path d="M334.667,687.284C334.667,690.795 332.254,693.64 329.277,693.64C326.3,693.64 323.887,690.795 323.887,687.284C323.887,683.774 326.3,680.931 329.277,680.931C332.254,680.931 334.667,683.774 334.667,687.284Z" style="fill:rgb(158,108,59);fill-rule:nonzero;"/>
            </g>
            <g transform="matrix(4.16667,0,0,4.16667,-627.307,-1974.35)">
                <path d="M305.387,641.671L294.666,641.671C280.569,641.671 269.141,658.204 269.141,672.302C269.141,672.302 269.966,721.821 300.027,721.821C330.088,721.821 330.913,672.302 330.913,672.302C330.913,658.204 319.485,641.671 305.387,641.671Z" style="fill:rgb(158,108,59);fill-rule:nonzero;"/>
            </g>
            <g transform="matrix(4.16667,0,0,4.16667,-627.307,-1974.35)">
                <path d="M331.95,681.767C336.5,674.934 341.767,632.798 316.11,633.885C293.462,614.487 252.686,640.355 268.104,681.767L271.018,683.601C271.018,683.601 270.638,678.822 272.733,674.134C274.829,669.445 280.481,665.346 282.067,655.395C282.827,650.627 289.708,652.317 297.134,654.007C305.201,655.843 313.911,657.679 316.11,651.232C319.201,665.087 327.865,667.797 329.081,674.134C330.297,680.47 329.036,683.601 329.036,683.601L331.95,681.767Z" style="fill:rgb(65,64,67);fill-rule:nonzero;"/>
            </g>
            <g transform="matrix(4.16667,0,0,4.16667,-627.307,-1974.35)">
                <path d="M271.018,683.601L271.018,683.6C271.012,683.526 270.655,678.786 272.733,674.134C274.829,669.445 280.481,665.346 282.067,655.395C282.438,653.068 284.267,652.279 286.907,652.278L286.945,652.278C289.298,652.284 292.289,652.909 295.462,653.626C295.49,653.633 295.52,653.639 295.548,653.646C295.736,653.688 295.923,653.731 296.111,653.773C296.114,653.774 296.118,653.775 296.122,653.776C296.401,653.839 296.681,653.903 296.961,653.967C297.003,653.977 297.044,653.986 297.086,653.996C297.102,653.999 297.118,654.003 297.134,654.007C297.217,654.026 297.3,654.044 297.384,654.063C297.394,654.066 297.405,654.068 297.416,654.071C297.504,654.091 297.592,654.111 297.68,654.131C297.735,654.143 297.79,654.155 297.845,654.168C301.416,654.974 305.07,655.734 308.197,655.736L308.217,655.736C311.882,655.734 314.818,654.687 316.032,651.449C316.059,651.378 316.085,651.306 316.11,651.232C319.201,665.087 327.865,667.797 329.081,674.134C329.085,674.156 329.089,674.177 329.093,674.198C329.097,674.217 329.1,674.235 329.104,674.253C329.104,674.256 329.105,674.258 329.105,674.26C329.597,676.88 329.663,678.937 329.575,680.45C329.516,679.305 329.37,677.985 329.081,676.478C327.865,670.141 319.201,667.431 316.11,653.576C314.946,656.987 311.96,658.079 308.21,658.079C304.873,658.079 300.932,657.215 297.134,656.35C293.335,655.486 289.679,654.622 286.912,654.622C284.27,654.622 282.438,655.41 282.067,657.739C280.481,667.69 274.829,671.789 272.733,676.478C271.521,679.189 271.126,681.771 271.018,683.601Z" style="fill:rgb(135,83,33);fill-rule:nonzero;"/>
            </g>
            <g transform="matrix(4.16667,0,0,4.16667,-627.307,-1974.35)">
                <path d="M271.018,683.601L271.018,683.6L271.018,683.601ZM329.105,674.26C329.105,674.258 329.104,674.256 329.104,674.253C329.104,674.256 329.105,674.258 329.105,674.26ZM329.093,674.198C329.089,674.177 329.085,674.156 329.081,674.134C329.085,674.155 329.089,674.177 329.093,674.198ZM308.21,655.736C308.205,655.736 308.201,655.736 308.197,655.736C308.201,655.736 308.205,655.736 308.21,655.736ZM308.217,655.736C311.882,655.734 314.818,654.687 316.032,651.449C314.818,654.687 311.882,655.734 308.217,655.736ZM282.067,655.395C282.438,653.067 284.267,652.279 286.907,652.278C284.267,652.279 282.438,653.068 282.067,655.395ZM297.845,654.168C297.79,654.155 297.735,654.143 297.68,654.131C297.735,654.143 297.79,654.155 297.845,654.168ZM297.416,654.071C297.405,654.068 297.394,654.066 297.384,654.063C297.394,654.066 297.405,654.068 297.416,654.071ZM297.086,653.996C297.044,653.986 297.003,653.977 296.961,653.967C297.003,653.977 297.044,653.986 297.086,653.996ZM296.122,653.776C296.118,653.775 296.114,653.774 296.111,653.773C296.114,653.774 296.118,653.775 296.122,653.776ZM295.548,653.646C295.52,653.639 295.49,653.633 295.462,653.626C295.49,653.633 295.52,653.639 295.548,653.646ZM286.945,652.278C286.934,652.278 286.923,652.278 286.912,652.278C286.923,652.278 286.934,652.278 286.945,652.278Z" style="fill:rgb(135,83,33);fill-rule:nonzero;"/>
            </g>
            <g transform="matrix(4.16667,0,0,4.16667,-627.307,-1974.35)">
                <path d="M311.465,756.078L306.463,750.855L307.039,750.098L311.809,754.95L311.465,756.078ZM288.576,756.036L288.232,754.908L292.961,750.098L293.537,750.855L288.576,756.036ZM300.176,743.117L299.825,743.117L300,742.939L300.176,743.117Z" style="fill:rgb(215,216,216);fill-rule:nonzero;"/>
            </g>
            <g transform="matrix(4.16667,0,0,4.16667,-627.307,-1974.35)">
                <path d="M306.463,750.855L300,744.105L293.537,750.855L292.961,750.098L299.825,743.117L300.176,743.117L307.039,750.098L306.463,750.855Z" style="fill:rgb(171,30,40);fill-rule:nonzero;"/>
            </g>
            <g transform="matrix(4.16667,0,0,4.16667,-627.307,-1974.35)">
                <path d="M281.423,732.558L263.387,740.7L278.705,754.359L271.152,759.225L300.027,793.623L281.423,732.558Z" style="fill:rgb(48,75,90);fill-rule:nonzero;"/>
            </g>
            <g transform="matrix(4.16667,0,0,4.16667,-627.307,-1974.35)">
                <path d="M318.63,732.558L336.668,740.7L321.349,754.359L328.901,759.225L300.027,793.623L318.63,732.558Z" style="fill:rgb(48,75,90);fill-rule:nonzero;"/>
            </g>
            <g transform="matrix(4.16667,0,0,4.16667,-627.307,-1974.35)">
                <path d="M337.006,740.701C336.897,740.701 336.789,740.7 336.679,740.7C336.789,740.7 336.897,740.701 337.006,740.701Z" style="fill:rgb(21,125,137);fill-rule:nonzero;"/>
            </g>
            <g transform="matrix(4.16667,0,0,4.16667,-627.307,-1974.35)">
                <path d="M322.348,755.003L321.349,754.359L332.631,744.3L336.679,740.7C336.789,740.7 336.897,740.701 337.006,740.701C337.38,740.704 337.747,740.711 338.113,740.72L322.348,755.003Z" style="fill:rgb(43,67,81);fill-rule:nonzero;"/>
            </g>
            <g transform="matrix(4.16667,0,0,4.16667,-627.307,-1974.35)">
                <path d="M322.334,755.016L321.316,754.359L332.631,744.3L321.349,754.359L322.348,755.003L322.334,755.016Z" style="fill:rgb(43,67,81);fill-rule:nonzero;"/>
            </g>
            <g transform="matrix(4.16667,0,0,4.16667,-627.307,-1974.35)">
                <path d="M261.811,740.721L261.81,740.72C262.281,740.709 262.755,740.7 263.244,740.7C262.758,740.702 262.28,740.708 261.811,740.721Z" style="fill:rgb(25,140,154);fill-rule:nonzero;"/>
            </g>
            <g transform="matrix(4.16667,0,0,4.16667,-627.307,-1974.35)">
                <path d="M277.589,755.016L261.811,740.721C262.28,740.708 262.758,740.702 263.244,740.7L278.606,754.359L277.589,755.016Z" style="fill:rgb(43,67,81);fill-rule:nonzero;"/>
            </g>
            <g transform="matrix(4.16667,0,0,4.16667,-627.307,-1974.35)">
                <path d="M300.027,795.288L271.152,760.787L272.004,760.24L300.027,793.623L328.05,760.24L328.901,760.787L300.027,795.288Z" style="fill:rgb(43,67,81);fill-rule:nonzero;"/>
            </g>
            <g transform="matrix(4.16667,0,0,4.16667,-627.307,-1974.35)">
                <path d="M300.027,793.623L272.004,760.24L272.004,760.239L300.027,793.623Z" style="fill:rgb(43,67,81);fill-rule:nonzero;"/>
            </g>
            <g transform="matrix(4.16667,0,0,4.16667,-627.307,-1974.35)">
                <path d="M300.027,793.623L328.05,760.239L328.05,760.24L300.027,793.623Z" style="fill:rgb(43,67,81);fill-rule:nonzero;"/>
            </g>
        </g>
        <g transform="matrix(0.991546,0,0,0.988639,458.001,-503.026)">
            <g transform="matrix(3.18499,0,0,3.18499,-1414.2,685.619)">
                <path d="M589.732,297L589.732,370.497C589.732,375.724 594.009,380 599.235,380L685.385,380C690.611,380 694.888,375.724 694.888,370.497L694.888,297L589.732,297Z" style="fill:rgb(56,140,242);fill-rule:nonzero;"/>
            </g>
            <g transform="matrix(3.18499,0,0,3.18499,-1414.2,685.619)">
                <path d="M694.888,300L694.888,281.664L659.779,246.17L599.235,246.17C594.009,246.17 589.732,250.446 589.732,255.672L589.732,300L694.888,300Z" style="fill:rgb(56,140,242);fill-rule:nonzero;"/>
            </g>
            <g transform="matrix(3.18499,0,0,3.18499,-1414.2,685.619)">
                <path d="M665.679,288.438C660.452,288.438 656.176,284.162 656.176,278.935L659.779,246.17L694.888,281.664L665.679,288.438Z" style="fill:rgb(38,95,163);fill-rule:nonzero;"/>
            </g>
            <g transform="matrix(3.18499,0,0,3.18499,-1414.2,685.619)">
                <path d="M659.87,246.169L659.87,272.116C659.87,277.342 664.146,281.618 669.373,281.618L694.888,281.618L659.87,246.169Z" style="fill:rgb(216,231,249);fill-rule:nonzero;"/>
            </g>
            <g transform="matrix(3.18499,0,0,3.18499,-1414.2,685.619)">
                <path d="M617.069,269.034L617.069,266.287L605.458,266.287L605.458,269.034L609.845,269.034L609.845,281.797L612.682,281.797L612.682,269.034L617.069,269.034Z" style="fill:white;fill-rule:nonzero;"/>
            </g>
            <g transform="matrix(3.18499,0,0,3.18499,-1414.2,685.619)">
                <path d="M631.339,281.798L625.932,273.754L631.028,266.287L627.771,266.287L624.492,271.738L620.902,266.287L617.623,266.287L622.852,274.064L617.379,281.798L620.636,281.798L624.292,276.103L628.059,281.798L631.339,281.798Z" style="fill:white;fill-rule:nonzero;"/>
            </g>
            <g transform="matrix(3.18499,0,0,3.18499,-1414.2,685.619)">
                <path d="M643.238,269.034L643.238,266.287L631.627,266.287L631.627,269.034L636.014,269.034L636.014,281.798L638.851,281.798L638.851,269.034L643.238,269.034Z" style="fill:white;fill-rule:nonzero;"/>
            </g>
            <g transform="matrix(3.18499,0,0,3.18499,-1414.62,683.475)">
                <path d="M606,322L678,322L678,319L606,319" style="fill:white;fill-rule:nonzero;"/>
            </g>
            <g transform="matrix(3.18499,0,0,3.18499,-1414.62,683.475)">
                <path d="M606,334L678,334L678,331L606,331" style="fill:white;fill-rule:nonzero;"/>
            </g>
            <g transform="matrix(3.18499,0,0,3.18499,-1414.62,683.475)">
                <path d="M606,346L678,346L678,343L606,343" style="fill:white;fill-rule:nonzero;"/>
            </g>
            <g transform="matrix(3.18499,0,0,3.18499,-1414.62,683.475)">
                <path d="M606,358L678,358L678,355L606,355" style="fill:white;fill-rule:nonzero;"/>
            </g>
            <g transform="matrix(3.18499,0,0,3.18499,-1414.2,685.619)">
                <rect x="589.732" y="297" width="105.156" height="3" style="fill:white;fill-rule:nonzero;"/>
            </g>
        </g>
        <g transform="matrix(0.613927,0,0,0.612127,1146.18,-523.279)">
            <g transform="matrix(6.41321,0,0,6.41321,-1264.92,2073.32)">
                <path d="M471.815,124.917L459.668,128.163L395.876,145.205L395.876,118.835L472.474,100.043L471.815,124.917Z" style="fill:rgb(38,95,163);"/>
            </g>
            <g transform="matrix(6.41321,0,0,6.41321,-1264.92,2073.32)">
                <path d="M395.876,118.835L395.876,145.205L348.889,124.362L337.119,119.142L336.61,94.22L395.876,118.835Z" style="fill:rgb(157,202,255);"/>
            </g>
            <g transform="matrix(6.41321,0,0,6.41321,-1264.92,2073.32)">
                <path d="M348.889,124.362L395.876,145.205L459.668,128.163L471.603,132.914L395.876,153.676L337.284,127.155L348.889,124.362Z" style="fill:rgb(56,140,242);fill-rule:nonzero;"/>
            </g>
            <g transform="matrix(6.41321,0,0,6.41321,-1264.92,2073.32)">
                <path d="M349.712,91.41L336.441,86.022L335.919,60.519L395.876,83.128L395.876,110.154L349.712,91.41Z" style="fill:rgb(157,202,255);fill-rule:nonzero;"/>
            </g>
            <g transform="matrix(6.41321,0,0,6.41321,-1264.92,2073.32)">
                <path d="M349.712,91.41L395.876,110.154L459,95.122L472.474,100.043L395.876,118.835L336.61,94.22L349.712,91.41Z" style="fill:rgb(56,140,242);"/>
            </g>
            <g transform="matrix(6.41321,0,0,6.41321,-1264.92,2073.32)">
                <path d="M459,95.122L395.876,110.154L395.876,83.128L473.366,66.408L472.691,91.861L459,95.122Z" style="fill:rgb(38,95,163);fill-rule:nonzero;"/>
            </g>
            <g transform="matrix(6.41321,0,0,6.41321,-1264.92,2073.32)">
                <path d="M395.876,179.413L337.782,151.516L337.284,127.155L395.876,153.676L395.876,179.413Z" style="fill:rgb(157,202,255);fill-rule:nonzero;"/>
            </g>
            <g transform="matrix(6.41321,0,0,6.41321,-1264.92,2073.32)">
                <path d="M395.876,179.413L395.876,153.676L471.603,132.914L470.958,157.228L395.876,179.413Z" style="fill:rgb(38,95,163);fill-rule:nonzero;"/>
            </g>
            <g transform="matrix(6.41321,0,0,6.41321,-1264.92,2073.32)">
                <path d="M473.366,66.408L395.876,83.128L335.919,60.519L412.347,46.168L473.366,66.408Z" style="fill:rgb(56,140,242);"/>
            </g>
        </g>
        <g transform="matrix(3.24908,0,0,3.23956,114.753,118.793)">
            <path d="M210.676,324.159L210.676,319.241L241.759,326.913L210.676,334.586L210.676,329.667L139.631,329.667L139.631,324.159L210.676,324.159Z" style="fill:white;fill-opacity:0.501961;"/>
        </g>
        <g transform="matrix(3.24908,0,0,3.23956,114.753,118.793)">
            <path d="M441.959,325.449L441.959,320.531L473.042,328.203L441.959,335.875L441.959,330.957L362.155,330.957L362.155,325.449L441.959,325.449Z" style="fill:white;fill-opacity:0.501961;"/>
        </g>
        <g transform="matrix(3.24908,0,0,3.23956,114.753,118.793)">
            <path d="M739.802,325.449L739.802,320.531L770.885,328.203L739.802,335.875L739.802,330.957L659.997,330.957L659.997,325.449L739.802,325.449Z" style="fill:white;fill-opacity:0.501961;"/>
        </g>
        <g transform="matrix(3.24908,0,0,3.23956,114.753,118.793)">
            <path d="M306.074,578.666L132.063,578.666L132.063,573.158L300.566,573.158L300.566,448.997L295.74,448.997L303.412,417.914L311.084,448.997L306.074,448.997L306.074,578.666Z" style="fill:white;fill-opacity:0.501961;"/>
        </g>
        <g transform="matrix(3.24908,0,0,3.23956,114.753,118.793)">
            <path d="M300.129,81.966L131.626,81.966L131.626,76.458L305.638,76.458L305.638,214.367L310.647,214.367L302.975,245.449L295.303,214.367L300.129,214.367L300.129,81.966Z" style="fill:white;fill-opacity:0.501961;"/>
        </g>
        <g transform="matrix(0.991546,0,0,0.988639,2215.57,493.81)">
            <text x="481.711px" y="401.464px" style="font-family:'Poppins-Regular', 'Poppins';font-size:50px;fill:white;">Owner</text>
        </g>
        <g transform="matrix(0.757103,0,0,0.754884,1024.87,-288.892)">
            <g transform="matrix(4.16667,0,0,4.16667,-609.895,-2718.99)">
                <path d="M736.613,1140.7C707.535,1140.7 714.023,1126.44 712.05,1112.16L687.95,1112.16C685.977,1126.44 692.465,1140.7 663.387,1140.7C644.803,1140.7 638.462,1148.84 638.462,1166.75L638.462,1178.82C655.43,1192.09 676.791,1200 700,1200C723.209,1200 744.569,1192.09 761.538,1178.82L761.538,1166.75C761.538,1148.84 755.197,1140.7 736.613,1140.7Z" style="fill:rgb(239,180,132);fill-rule:nonzero;"/>
            </g>
            <g transform="matrix(4.16667,0,0,4.16667,-609.895,-2718.99)">
                <path d="M700.026,1123.98C695.087,1123.98 690.941,1122.64 687.455,1120.41C687.473,1119.71 687.493,1119 687.521,1118.29C690.993,1120.5 695.12,1121.82 700.026,1121.82C704.909,1121.82 709.019,1120.51 712.481,1118.32C712.508,1119.03 712.528,1119.74 712.546,1120.44C709.07,1122.65 704.941,1123.98 700.026,1123.98Z" style="fill:rgb(215,162,119);fill-rule:nonzero;"/>
            </g>
            <g transform="matrix(4.16667,0,0,4.16667,-609.895,-2718.99)">
                <path d="M736.613,1140.7C727.797,1140.7 722.254,1139.38 718.749,1137.16C716.383,1145.28 708.887,1151.22 700,1151.22C691.112,1151.22 683.617,1145.28 681.251,1137.16C677.746,1139.38 672.203,1140.7 663.387,1140.7C644.803,1140.7 638.462,1148.84 638.462,1166.75L638.462,1178.82C655.43,1192.09 676.791,1200 700,1200C723.209,1200 744.569,1192.09 761.538,1178.82L761.538,1166.75C761.538,1148.84 755.197,1140.7 736.613,1140.7Z" style="fill:rgb(9,40,71);fill-rule:nonzero;"/>
            </g>
            <g transform="matrix(4.16667,0,0,4.16667,-609.895,-2718.99)">
                <path d="M676.166,1087.28C676.166,1090.79 673.753,1093.64 670.776,1093.64C667.799,1093.64 665.386,1090.79 665.386,1087.28C665.386,1083.77 667.799,1080.93 670.776,1080.93C673.753,1080.93 676.166,1083.77 676.166,1087.28Z" style="fill:rgb(239,180,132);fill-rule:nonzero;"/>
            </g>
            <g transform="matrix(4.16667,0,0,4.16667,-609.895,-2718.99)">
                <path d="M734.668,1087.28C734.668,1090.79 732.255,1093.64 729.277,1093.64C726.301,1093.64 723.888,1090.79 723.888,1087.28C723.888,1083.77 726.301,1080.93 729.277,1080.93C732.255,1080.93 734.668,1083.77 734.668,1087.28Z" style="fill:rgb(239,180,132);fill-rule:nonzero;"/>
            </g>
            <g transform="matrix(4.16667,0,0,4.16667,-609.895,-2718.99)">
                <path d="M705.387,1041.67L694.666,1041.67C680.569,1041.67 669.141,1058.2 669.141,1072.3C669.141,1072.3 669.966,1121.82 700.026,1121.82C730.088,1121.82 730.913,1072.3 730.913,1072.3C730.913,1058.2 719.484,1041.67 705.387,1041.67Z" style="fill:rgb(239,180,132);fill-rule:nonzero;"/>
            </g>
            <g transform="matrix(4.16667,0,0,4.16667,-609.895,-2718.99)">
                <path d="M705.85,1037.47L694.205,1037.47C678.893,1037.47 666.48,1055.74 666.48,1071.31C666.48,1071.31 666.556,1075.81 667.431,1082.23L670.804,1083.4C669.992,1077.57 674.219,1075.72 674.219,1068.39C674.219,1061.07 680.569,1053.39 694.666,1053.39L705.387,1053.39C719.484,1053.39 725.835,1061.07 725.835,1068.39C725.835,1075.72 730.062,1077.57 729.25,1083.4L732.623,1082.23C733.498,1075.81 733.573,1071.31 733.573,1071.31C733.573,1055.74 721.16,1037.47 705.85,1037.47Z" style="fill:rgb(102,86,76);fill-rule:nonzero;"/>
            </g>
            <g transform="matrix(4.16667,0,0,4.16667,-609.895,-2718.99)">
                <path d="M729.34,1082.44C729.111,1078.02 725.835,1075.82 725.835,1069.37C725.835,1062.04 719.484,1054.36 705.387,1054.36L694.666,1054.36C680.569,1054.36 674.219,1062.04 674.219,1069.37C674.219,1075.82 670.942,1078.02 670.714,1082.44C670.474,1077.6 673.84,1075.52 674.189,1069.43C674.19,1069.41 674.191,1069.4 674.192,1069.39C674.192,1069.37 674.193,1069.36 674.194,1069.35C674.195,1069.33 674.195,1069.32 674.196,1069.31C674.197,1069.29 674.197,1069.28 674.198,1069.27C674.198,1069.25 674.199,1069.24 674.2,1069.23C674.203,1069.16 674.206,1069.09 674.208,1069.02C674.208,1069.01 674.209,1069 674.209,1068.98L674.21,1068.97C674.21,1068.96 674.21,1068.95 674.21,1068.94C674.211,1068.94 674.211,1068.93 674.211,1068.93C674.211,1068.92 674.211,1068.91 674.212,1068.9L674.212,1068.89C674.212,1068.88 674.212,1068.87 674.213,1068.86L674.213,1068.85C674.213,1068.84 674.213,1068.83 674.214,1068.82L674.214,1068.81C674.214,1068.8 674.214,1068.79 674.215,1068.78C674.215,1068.78 674.215,1068.77 674.215,1068.76C674.215,1068.76 674.215,1068.75 674.215,1068.74C674.215,1068.74 674.216,1068.73 674.216,1068.72C674.216,1068.72 674.216,1068.71 674.216,1068.7C674.216,1068.69 674.216,1068.69 674.216,1068.68C674.216,1068.67 674.217,1068.67 674.217,1068.66C674.217,1068.65 674.217,1068.65 674.217,1068.64C674.217,1068.63 674.217,1068.63 674.217,1068.62C674.217,1068.61 674.217,1068.61 674.217,1068.6C674.218,1068.59 674.218,1068.58 674.218,1068.58C674.218,1068.57 674.218,1068.56 674.218,1068.56C674.218,1068.55 674.218,1068.54 674.218,1068.53L674.218,1068.52C674.218,1068.51 674.218,1068.5 674.218,1068.49L674.218,1068.48C674.218,1068.47 674.218,1068.46 674.219,1068.45C674.219,1068.44 674.219,1068.44 674.219,1068.43C674.219,1068.42 674.219,1068.41 674.219,1068.39C674.219,1061.07 680.569,1053.39 694.666,1053.39L705.387,1053.39C719.484,1053.39 725.835,1061.07 725.835,1068.39L725.835,1068.53C725.836,1068.54 725.836,1068.55 725.836,1068.56L725.836,1068.62C725.836,1068.63 725.836,1068.63 725.837,1068.64L725.837,1068.7C725.838,1068.71 725.838,1068.72 725.838,1068.72C725.838,1068.73 725.838,1068.73 725.838,1068.74C725.838,1068.75 725.838,1068.76 725.839,1068.77L725.839,1068.81C725.84,1068.81 725.84,1068.82 725.84,1068.82C725.84,1068.83 725.84,1068.84 725.84,1068.85C725.841,1068.85 725.841,1068.86 725.841,1068.86C725.841,1068.87 725.841,1068.88 725.842,1068.89L725.842,1068.9C725.842,1068.91 725.842,1068.92 725.843,1068.93L725.843,1068.94C725.843,1068.95 725.844,1068.97 725.844,1068.98C725.845,1068.99 725.845,1069.01 725.845,1069.02L725.846,1069.02C725.849,1069.12 725.853,1069.21 725.858,1069.31C726.169,1075.49 729.581,1077.57 729.34,1082.44Z" style="fill:rgb(215,162,119);fill-rule:nonzero;"/>
            </g>
            <g transform="matrix(4.16667,0,0,4.16667,-609.895,-2718.99)">
                <path d="M725.846,1069.02L725.845,1069.02L725.846,1069.02ZM674.209,1068.98L674.21,1068.97L674.209,1068.98ZM674.21,1068.94C674.211,1068.94 674.211,1068.93 674.211,1068.93C674.211,1068.93 674.211,1068.94 674.21,1068.94ZM725.843,1068.94L725.843,1068.93L725.843,1068.94ZM674.212,1068.9L674.212,1068.89L674.212,1068.9ZM725.842,1068.9L725.842,1068.89L725.842,1068.9ZM674.213,1068.86L674.213,1068.85L674.213,1068.86ZM725.841,1068.86C725.841,1068.86 725.841,1068.85 725.84,1068.85C725.841,1068.85 725.841,1068.86 725.841,1068.86ZM674.214,1068.82L674.214,1068.81L674.214,1068.82ZM725.84,1068.82C725.84,1068.82 725.84,1068.81 725.839,1068.81C725.84,1068.81 725.84,1068.82 725.84,1068.82ZM674.215,1068.78C674.215,1068.78 674.215,1068.77 674.215,1068.76C674.215,1068.77 674.215,1068.78 674.215,1068.78ZM725.839,1068.78L725.839,1068.77L725.839,1068.78ZM674.215,1068.74C674.215,1068.74 674.216,1068.73 674.216,1068.72C674.216,1068.73 674.215,1068.74 674.215,1068.74ZM725.838,1068.74C725.838,1068.73 725.838,1068.73 725.838,1068.72C725.838,1068.73 725.838,1068.73 725.838,1068.74ZM725.837,1068.7C725.837,1068.69 725.837,1068.69 725.837,1068.68C725.837,1068.69 725.837,1068.69 725.837,1068.7ZM674.216,1068.7C674.216,1068.69 674.216,1068.69 674.216,1068.68C674.216,1068.69 674.216,1068.69 674.216,1068.7ZM674.217,1068.66C674.217,1068.65 674.217,1068.65 674.217,1068.64C674.217,1068.65 674.217,1068.65 674.217,1068.66ZM725.837,1068.66C725.837,1068.65 725.837,1068.65 725.837,1068.64C725.837,1068.65 725.837,1068.65 725.837,1068.66ZM725.836,1068.62C725.836,1068.61 725.836,1068.61 725.836,1068.6C725.836,1068.61 725.836,1068.61 725.836,1068.62ZM674.217,1068.62C674.217,1068.61 674.217,1068.61 674.217,1068.6C674.217,1068.61 674.217,1068.61 674.217,1068.62ZM674.218,1068.58C674.218,1068.57 674.218,1068.56 674.218,1068.56C674.218,1068.56 674.218,1068.57 674.218,1068.58ZM725.836,1068.57L725.836,1068.56L725.836,1068.57ZM725.835,1068.53L725.835,1068.52L725.835,1068.53ZM674.218,1068.53L674.218,1068.52L674.218,1068.53ZM674.218,1068.49L674.218,1068.48L674.218,1068.49ZM725.835,1068.49L725.835,1068.48L725.835,1068.49ZM725.835,1068.45C725.835,1068.44 725.835,1068.44 725.835,1068.43C725.835,1068.44 725.835,1068.44 725.835,1068.45ZM674.219,1068.45C674.219,1068.44 674.219,1068.44 674.219,1068.43C674.219,1068.44 674.219,1068.44 674.219,1068.45Z" style="fill:rgb(92,76,67);fill-rule:nonzero;"/>
            </g>
            <g transform="matrix(4.16667,0,0,4.16667,-609.895,-2718.99)">
                <path d="M728.526,1147.34C724.685,1147.34 722.814,1147.02 720.399,1146.43C716.396,1152.82 708.124,1157.08 700.026,1157.08C691.925,1157.08 683.65,1152.82 679.648,1146.42C677.226,1147.01 675.34,1147.34 671.473,1147.34C656.995,1147.34 652.055,1153.68 652.055,1167.64L652.055,1187.77C666.29,1195.57 682.627,1200 700,1200C717.373,1200 733.71,1195.57 747.945,1187.77L747.945,1167.64C747.945,1153.68 743.005,1147.34 728.526,1147.34Z" style="fill:rgb(190,190,190);fill-rule:nonzero;"/>
            </g>
        </g>
    </g>
</svg>
